<svg width="134" height="110" viewBox="0 0 134 110" fill="none" xmlns="http://www.w3.org/2000/svg">
<g clip-path="url(#clip0_704_1177)">
<path d="M15.19 95.135C14.7634 94.3368 14.1136 93.68 13.32 93.245C12.4682 92.793 11.5139 92.5691 10.55 92.595C9.47773 92.5801 8.42107 92.8529 7.49 93.385C6.58169 93.92 5.84592 94.7044 5.37 95.645C4.86437 96.7142 4.60212 97.8822 4.60212 99.065C4.60212 100.248 4.86437 101.416 5.37 102.485C5.84452 103.427 6.58062 104.211 7.49 104.745C8.47443 105.289 9.58564 105.561 10.71 105.535C12.0473 105.592 13.3605 105.166 14.41 104.335C15.4064 103.467 16.0767 102.285 16.31 100.985H9.49V97.985H20.22V101.425C19.95 102.811 19.3687 104.117 18.52 105.245C17.6349 106.427 16.4883 107.389 15.17 108.055C13.7487 108.776 12.1733 109.139 10.58 109.115C8.77691 109.132 6.99984 108.684 5.42 107.815C3.90792 106.976 2.65561 105.738 1.8 104.235C0.938727 102.633 0.487923 100.843 0.487923 99.025C0.487923 97.2066 0.938727 95.4165 1.8 93.815C2.64954 92.3051 3.90312 91.062 5.42 90.225C6.98922 89.3575 8.75707 88.9129 10.55 88.935C12.6 88.8833 14.618 89.4514 16.34 90.565C17.9739 91.6384 19.1776 93.2528 19.74 95.125L15.19 95.135Z" fill="#7B8994"/>
<path d="M29.1 93.7549C29.9605 93.2727 30.9337 93.0277 31.92 93.0449V97.1949H30.87C29.8555 97.1203 28.8507 97.435 28.06 98.0749C27.707 98.4848 27.4409 98.9619 27.2776 99.4776C27.1143 99.9932 27.0573 100.537 27.11 101.075V108.875H23.11V93.2649H27.11V95.7049C27.5967 94.8963 28.2817 94.2251 29.1 93.7549Z" fill="#7B8994"/>
<path d="M34.49 96.815C35.053 95.6544 35.9354 94.6785 37.0336 94.0019C38.1318 93.3253 39.4002 92.9759 40.69 92.995C41.7565 92.9725 42.8117 93.2165 43.76 93.705C44.5887 94.1313 45.3101 94.7399 45.87 95.4849V93.2649H49.87V108.925H45.87V106.635C45.3224 107.402 44.5988 108.026 43.76 108.455C42.8087 108.957 41.7453 109.208 40.67 109.185C39.3959 109.203 38.1433 108.856 37.06 108.185C35.9548 107.475 35.0658 106.476 34.49 105.295C33.8381 103.975 33.5124 102.517 33.54 101.045C33.5073 99.5786 33.8334 98.1265 34.49 96.815ZM45.3 98.605C44.9505 97.9581 44.432 97.4184 43.7997 97.0432C43.1674 96.6681 42.4452 96.4717 41.71 96.475C40.9833 96.4695 40.2689 96.6621 39.6435 97.0321C39.018 97.4021 38.5052 97.9355 38.16 98.575C37.7643 99.3297 37.5681 100.173 37.59 101.025C37.5712 101.883 37.7672 102.732 38.16 103.495C38.5119 104.165 39.0412 104.725 39.69 105.115C40.292 105.484 40.9837 105.682 41.69 105.685C42.4138 105.691 43.1257 105.501 43.75 105.135C44.395 104.758 44.9242 104.212 45.28 103.555C45.6629 102.777 45.862 101.922 45.862 101.055C45.862 100.188 45.6629 99.3327 45.28 98.5549L45.3 98.605Z" fill="#7B8994"/>
<path d="M77.82 94.8149C78.4339 95.4737 78.9074 96.2505 79.2117 97.098C79.516 97.9456 79.6447 98.8461 79.59 99.7449V108.925H75.59V100.275C75.6591 99.2527 75.3253 98.2441 74.66 97.4649C74.3305 97.1293 73.9341 96.8668 73.4965 96.6945C73.0589 96.5222 72.5898 96.444 72.12 96.4649C71.6471 96.4437 71.175 96.5216 70.7341 96.6939C70.2932 96.8661 69.8932 97.1288 69.56 97.4649C69.2162 97.8442 68.9508 98.2877 68.7792 98.77C68.6076 99.2523 68.5331 99.7637 68.56 100.275V108.925H64.56V100.275C64.6307 99.2508 64.2927 98.2404 63.62 97.4649C63.2905 97.1293 62.8941 96.8668 62.4565 96.6945C62.0189 96.5222 61.5498 96.444 61.08 96.4649C60.6026 96.4437 60.1261 96.5217 59.6803 96.6938C59.2345 96.8659 58.8293 97.1284 58.49 97.4649C57.8173 98.2404 57.4793 99.2508 57.55 100.275V108.925H53.55V93.2649H57.55V95.1649C58.0809 94.491 58.7671 93.9557 59.55 93.6049C60.3784 93.2273 61.2796 93.0362 62.19 93.0449C63.3316 93.0242 64.4599 93.2925 65.47 93.8249C66.4188 94.3239 67.1983 95.093 67.71 96.0349C68.2293 95.1192 68.9949 94.3674 69.92 93.8649C71.1628 93.2002 72.5818 92.9394 73.9798 93.1186C75.3777 93.2978 76.6851 93.9082 77.72 94.8649L77.82 94.8149Z" fill="#7B8994"/>
<path d="M87.3 88.0149V108.925H83.3V88.0149H87.3Z" fill="#7B8994"/>
<path d="M105.65 102.285H94.2C94.2401 103.292 94.6663 104.244 95.39 104.945C96.0824 105.602 97.0053 105.962 97.96 105.945C98.6144 105.984 99.2652 105.824 99.8261 105.484C100.387 105.145 100.831 104.643 101.1 104.045H105.36C104.922 105.535 104.009 106.842 102.76 107.765C101.394 108.765 99.7322 109.279 98.04 109.225C96.6429 109.24 95.2654 108.896 94.04 108.225C92.851 107.57 91.8782 106.583 91.24 105.385C90.5508 104.08 90.2066 102.62 90.24 101.145C90.2102 99.6635 90.5541 98.1984 91.24 96.885C91.8655 95.6902 92.8289 94.706 94.01 94.055C95.2621 93.4143 96.6485 93.0802 98.055 93.0802C99.4615 93.0802 100.848 93.4143 102.1 94.055C103.261 94.6773 104.213 95.6265 104.84 96.785C105.506 98.0124 105.85 99.3886 105.84 100.785C105.815 101.289 105.751 101.79 105.65 102.285ZM101.65 99.625C101.659 99.1621 101.565 98.7031 101.375 98.281C101.185 97.859 100.903 97.4846 100.55 97.185C99.8156 96.5666 98.8797 96.2392 97.92 96.265C97.014 96.2401 96.1319 96.558 95.45 97.155C94.7527 97.8009 94.3153 98.6793 94.22 99.625H101.65Z" fill="#7B8994"/>
<path d="M115.82 96.515H113.08V108.925H109.08V96.515H107.29V93.265H109.07V92.475C109.004 91.691 109.116 90.9023 109.399 90.168C109.681 89.4337 110.126 88.7728 110.7 88.235C112.161 87.2273 113.935 86.7767 115.7 86.965V90.305C114.997 90.219 114.287 90.3894 113.7 90.785C113.487 91.0377 113.327 91.3312 113.231 91.6475C113.135 91.9638 113.104 92.2963 113.14 92.625V93.265H115.88L115.82 96.515Z" fill="#7B8994"/>
<path d="M123 96.5149V104.095C122.978 104.301 123.001 104.509 123.066 104.706C123.132 104.903 123.239 105.083 123.38 105.235C123.75 105.513 124.21 105.641 124.67 105.595H126.49V108.925H124C120.667 108.925 119 107.305 119 104.065V96.5149H117.14V93.2649H119V89.3949H123V93.2649H126.49V96.5149H123Z" fill="#7B8994"/>
<path d="M129.34 108.455C129.122 108.239 128.948 107.982 128.83 107.699C128.712 107.416 128.651 107.112 128.651 106.805C128.651 106.498 128.712 106.194 128.83 105.911C128.948 105.628 129.122 105.371 129.34 105.155C129.576 104.932 129.854 104.758 130.158 104.643C130.462 104.528 130.785 104.474 131.11 104.485C131.427 104.476 131.742 104.531 132.038 104.646C132.333 104.761 132.602 104.934 132.83 105.155C133.266 105.593 133.511 106.187 133.511 106.805C133.511 107.423 133.266 108.017 132.83 108.455C132.604 108.677 132.335 108.852 132.039 108.967C131.743 109.082 131.427 109.136 131.11 109.125C130.785 109.138 130.461 109.085 130.157 108.97C129.853 108.855 129.575 108.68 129.34 108.455Z" fill="#7B8994"/>
<path d="M80.6 30.5149C79.4958 28.43 77.8066 26.713 75.74 25.5749C73.5053 24.4072 71.0107 23.8258 68.49 23.8849C65.6543 23.8341 62.8569 24.5455 60.39 25.9449C58.0347 27.3343 56.1289 29.372 54.9 31.8149C53.5244 34.5515 52.8378 37.5827 52.9 40.6449C52.811 43.7643 53.4983 46.8569 54.9 49.6449C56.1653 52.113 58.1215 54.1596 60.53 55.5349C63.0979 56.954 65.9969 57.665 68.93 57.5949C72.4149 57.7425 75.8365 56.6315 78.57 54.4649C81.1751 52.2399 82.9338 49.1851 83.55 45.8149H65.87V37.8749H93.71V46.8749C93.0169 50.4829 91.5047 53.8836 89.29 56.8149C86.992 59.9023 84.0065 62.4119 80.57 64.1449C76.853 66.0245 72.7346 66.9717 68.57 66.9049C63.8749 66.9759 59.2425 65.8213 55.13 63.5549C51.1826 61.3837 47.9174 58.1566 45.7 54.2349C43.3751 50.1024 42.1913 45.4259 42.27 40.6849C42.1971 35.932 43.3803 31.244 45.7 27.0949C47.9104 23.1603 51.1766 19.9217 55.13 17.7449C59.2179 15.4886 63.821 14.3309 68.49 14.3849C73.8328 14.2555 79.092 15.7287 83.59 18.6149C87.8701 21.4048 91.0233 25.6209 92.49 30.5149H80.6Z" fill="white"/>
<path d="M92.49 30.515L73.13 37.875H65.87V45.815H83.55C83.55 45.815 82.37 53.455 75.37 56.495C68.37 59.535 61.14 55.915 61.14 55.915C61.14 55.915 53.49 52.355 52.96 42.205C52.43 32.055 58.11 27.555 58.83 27.025C59.55 26.495 64.49 22.405 73.25 24.535C76.3651 25.5437 78.9881 27.6849 80.6 30.535L92.49 30.515Z" fill="#7B8994"/>
<path d="M49.21 22.4249L27.75 31.4249C27.75 31.4249 20.19 59.2549 46.83 76.0049C46.83 76.0049 53.83 80.1149 59.15 80.9449L80.79 63.9449C80.79 63.9449 73.7 68.4549 62.39 66.1649C56.0905 64.773 50.5563 61.0371 46.91 55.7149C46.91 55.7149 40.91 48.2349 42.75 35.6449C42.75 35.6449 44.12 27.4849 49.21 22.4249Z" fill="#7B8994"/>
<path d="M29.9 30.4849C29.9 30.4849 35.49 4.72494 65.54 0.814941L75.54 15.1649C75.54 15.1649 59.07 10.8149 49.21 22.4249L29.9 30.4849Z" fill="#9AA0A5"/>
</g>
<defs>
<clipPath id="clip0_704_1177">
<rect width="133.02" height="108.37" fill="white" transform="translate(0.489998 0.814941)"/>
</clipPath>
</defs>
</svg>
