<svg xmlns="http://www.w3.org/2000/svg" width="75.487" height="58" viewBox="0 0 75.487 58">
  <g id="Grupo_51" data-name="Grupo 51" transform="translate(0)">
    <path id="Caminho_212" data-name="Caminho 212" d="M1000.406,470.58a8.074,8.074,0,1,1-8.074-8.074,8.074,8.074,0,0,1,8.074,8.074" transform="translate(-936.594 -447.704)" fill="#fff"/>
    <path id="Caminho_213" data-name="Caminho 213" d="M936.668,420.433a13.606,13.606,0,1,1-13.606-13.606,13.606,13.606,0,0,1,13.606,13.606" transform="translate(-881.678 -406.827)" fill="#fff"/>
    <path id="Caminho_214" data-name="Caminho 214" d="M870.244,471.022a10.765,10.765,0,1,1-10.765-10.765,10.765,10.765,0,0,1,10.765,10.765" transform="translate(-837.083 -446.053)" fill="#fff"/>
    <path id="Caminho_215" data-name="Caminho 215" d="M822.882,575.91h-5.858l-6.2-8.819v8.819h-5.858v-17.54h5.858l6.2,8.968v-8.968h5.858Z" transform="translate(-804.964 -518.084)" fill="#fff"/>
    <path id="Caminho_216" data-name="Caminho 216" d="M882.67,574.1a9.031,9.031,0,0,1-3.5-3.221,8.947,8.947,0,0,1,0-9.265,8.943,8.943,0,0,1,3.5-3.208,10.723,10.723,0,0,1,9.671,0,8.876,8.876,0,0,1,3.47,3.208,9.024,9.024,0,0,1,0,9.265,8.94,8.94,0,0,1-3.483,3.221,10.6,10.6,0,0,1-9.658,0m7.534-5.017a4.746,4.746,0,0,0,0-5.7,4,4,0,0,0-5.409,0,4.746,4.746,0,0,0,0,5.7,4,4,0,0,0,5.409,0" transform="translate(-858.497 -517.262)" fill="#fff"/>
    <path id="Caminho_217" data-name="Caminho 217" d="M959.759,573.259h-6.228l-.924,2.651H946.46l6.834-17.54h6.755l6.808,17.54h-6.175Zm-1.425-4.137-1.689-4.88-1.689,4.88Z" transform="translate(-908.844 -518.083)" fill="#fff"/>
    <path id="Caminho_218" data-name="Caminho 218" d="M1038.755,575.91l-3.51-6.292h-.026v6.292h-5.858V558.37h8.708a9.077,9.077,0,0,1,3.879.756,5.277,5.277,0,0,1,3.219,4.992,5,5,0,0,1-1.042,3.122,5.743,5.743,0,0,1-2.995,1.957l4.064,6.714Zm-3.536-9.959h2.322a1.914,1.914,0,0,0,1.266-.359,1.647,1.647,0,0,0-.013-2.217,1.8,1.8,0,0,0-1.253-.4h-2.322Z" transform="translate(-969.707 -518.083)" fill="#fff"/>
  </g>
</svg>
